# xmcd CD database file
#
# Track frame offsets:
#	150
#	10972
#	22341
#	31725
#	44444
#	53475
#	61756
#	72531
#	83948
#	94975
#	108550
#	120361
#
# Disc length: 1755 seconds
#
# Revision: 0
# Processed by: cddbd v1.5.2PL0 Copyright (c) Steve Scherf et al.
# Submitted via: CDex 1.51
#
DISCID=9c06d90c
DTITLE=Willie Nelson - Classic Country
DYEAR=2000
DGENRE=Country
TTITLE0=Blame It On The Times
TTITLE1=I'm Going To Lose A Lot Of Teardrops
TTITLE2=One Step Beyond
TTITLE3=I Just Don't Understand
TTITLE4=Waiting Time
TTITLE5=You Wouldn't Cross The Street To Say Goodbye
TTITLE6=I Feel Sorry For Him
TTITLE7=Suffering In Silence
TTITLE8=Go Away
TTITLE9=You'll Always Have Someone
TTITLE10=Night Life
TTITLE11=Touch Me
EXTD=YEAR: 2000
EXTT0=
EXTT1=
EXTT2=
EXTT3=
EXTT4=
EXTT5=
EXTT6=
EXTT7=
EXTT8=
EXTT9=
EXTT10=
EXTT11=
PLAYORDER=
